<svg width="60" height="60" viewBox="0 0 60 60" fill="none" xmlns="http://www.w3.org/2000/svg">
<g filter="url(#filter0_d_12_207)">
<circle cx="30" cy="28" r="25" fill="white"/>
<circle cx="30" cy="28" r="24.75" stroke="#C4C4C4" stroke-width="0.5"/>
</g>
<path d="M25.5557 34.2271L25.5436 34.241L25.5326 34.2559C25.1693 34.7456 25.2091 35.4398 25.6532 35.8839C26.1414 36.372 26.9328 36.372 27.421 35.8839L34.421 28.8839L34.4339 28.8709L34.4459 28.8571L34.5185 28.7729L34.5306 28.759L34.5416 28.7441C34.905 28.2544 34.8651 27.5602 34.421 27.1161L27.421 20.1161L27.408 20.1032L27.3942 20.0912L27.3101 20.0186L27.2961 20.0065L27.2813 19.9955C26.7915 19.6321 26.0973 19.672 25.6532 20.1161L25.6403 20.1291L25.6283 20.1429L25.5557 20.2271L25.5436 20.241L25.5326 20.2559C25.1693 20.7456 25.2091 21.4398 25.6532 21.8839C25.6532 21.8839 25.6532 21.8839 25.6532 21.8839L31.769 28L25.6532 34.1161L25.6403 34.1291L25.6283 34.1429L25.5557 34.2271Z" fill="#ED4040" stroke="#ED4040"/>
<defs>
<filter id="filter0_d_12_207" x="0" y="0" width="60" height="60" filterUnits="userSpaceOnUse" color-interpolation-filters="sRGB">
<feFlood flood-opacity="0" result="BackgroundImageFix"/>
<feColorMatrix in="SourceAlpha" type="matrix" values="0 0 0 0 0 0 0 0 0 0 0 0 0 0 0 0 0 0 127 0" result="hardAlpha"/>
<feOffset dy="2"/>
<feGaussianBlur stdDeviation="2.5"/>
<feColorMatrix type="matrix" values="0 0 0 0 0 0 0 0 0 0 0 0 0 0 0 0 0 0 0.2 0"/>
<feBlend mode="normal" in2="BackgroundImageFix" result="effect1_dropShadow_12_207"/>
<feBlend mode="normal" in="SourceGraphic" in2="effect1_dropShadow_12_207" result="shape"/>
</filter>
</defs>
</svg>
