<svg width="60" height="60" viewBox="0 0 60 60" fill="none" xmlns="http://www.w3.org/2000/svg">
<g filter="url(#filter0_d_12_206)">
<circle cx="30" cy="28" r="25" transform="rotate(180 30 28)" fill="white"/>
<circle cx="30" cy="28" r="24.75" transform="rotate(180 30 28)" stroke="#C4C4C4" stroke-width="0.5"/>
</g>
<path d="M34.4443 21.7729L34.4564 21.759L34.4674 21.7441C34.8307 21.2544 34.7909 20.5602 34.3468 20.1161C33.8586 19.628 33.0672 19.628 32.579 20.1161L25.579 27.1161L25.5661 27.1291L25.5541 27.1429L25.4815 27.2271L25.4694 27.241L25.4584 27.2559C25.095 27.7456 25.1349 28.4398 25.579 28.8839L32.579 35.8839L32.592 35.8968L32.6058 35.9088L32.6899 35.9814L32.7039 35.9935L32.7187 36.0045C33.2085 36.3679 33.9027 36.328 34.3468 35.8839L34.3597 35.8709L34.3717 35.8571L34.4443 35.7729L34.4564 35.759L34.4674 35.7441C34.8307 35.2544 34.7909 34.5602 34.3468 34.1161C34.3468 34.1161 34.3468 34.1161 34.3468 34.1161L28.231 28L34.3468 21.8839L34.3597 21.8709L34.3717 21.8571L34.4443 21.7729Z" fill="#ED4040" stroke="#ED4040"/>
<defs>
<filter id="filter0_d_12_206" x="0" y="0" width="60" height="60" filterUnits="userSpaceOnUse" color-interpolation-filters="sRGB">
<feFlood flood-opacity="0" result="BackgroundImageFix"/>
<feColorMatrix in="SourceAlpha" type="matrix" values="0 0 0 0 0 0 0 0 0 0 0 0 0 0 0 0 0 0 127 0" result="hardAlpha"/>
<feOffset dy="2"/>
<feGaussianBlur stdDeviation="2.5"/>
<feColorMatrix type="matrix" values="0 0 0 0 0 0 0 0 0 0 0 0 0 0 0 0 0 0 0.2 0"/>
<feBlend mode="normal" in2="BackgroundImageFix" result="effect1_dropShadow_12_206"/>
<feBlend mode="normal" in="SourceGraphic" in2="effect1_dropShadow_12_206" result="shape"/>
</filter>
</defs>
</svg>
